<?xml version="1.0" encoding="utf-8" ?>
<svg baseProfile="tiny" version="1.2" viewBox="0 0 2480 3509" xmlns="http://www.w3.org/2000/svg" xmlns:ev="http://www.w3.org/2001/xml-events" xmlns:xlink="http://www.w3.org/1999/xlink"><defs /><rect fill="white" height="3509" width="2480" x="0" y="0" /><line stroke="black" x1="0" x2="0" y1="0" y2="3509" /><line stroke="black" x1="2480" x2="2480" y1="0" y2="3509" /><line stroke="black" x1="0" x2="2480" y1="0.0" y2="0.0" /><line stroke="black" x1="0" x2="2480" y1="3509.0" y2="3509.0" /><text font-size="34" x="243" y="295">- à la rubrique 2910 relative aux installations de combustion, il faut lire :</text><text font-size="36" x="244" y="406">2910</text><text font-size="6" x="146" y="363"> </text><text font-size="8" x="1593" y="370"> </text><text font-size="8" x="1977" y="370"> </text><text font-size="38" x="149" y="1127">La rubrique n° 1155 est supprimée et remplacée par la rubrique n° 1172 conformément aux dispositions de</text><text font-size="38" x="149" y="1181">l’article L513-1 du code de l’environnement.</text><text font-size="50" x="147" y="1285"> </text><text font-size="32" x="231" y="1283">1172-1</text><text font-size="34" x="221" y="1552">1171-la</text><text font-size="6" x="146" y="1245"> </text><text font-size="8" x="1593" y="1251"> </text><text font-size="8" x="1977" y="1251"> </text><text font-size="50" x="147" y="1795"> </text><text font-size="46" x="148" y="1917">Article 2 - CONDITIONS DE REJET A L’ATMOSPHERE ET VALEURS LIMITES</text><text font-size="36" x="149" y="2022">Les tableaux dans les articles 8-2 et 8-4 de l’arrêté préfectoral codificatif du 23 janvier 2004 sont modifiés</text><text font-size="40" x="148" y="2078">comme suit :</text><text font-size="38" x="1033" y="2131">Tableau de l’article 8-2</text><text font-size="50" x="141" y="2223">——</text><text font-size="50" x="141" y="2321"> </text><text font-size="50" x="145" y="2420"> </text><text font-size="50" x="386" y="2496"> </text><text font-size="50" x="141" y="2643"> </text><text font-size="50" x="386" y="2700"> </text><text font-size="50" x="388" y="3006"> </text><text font-size="50" x="141" y="3153"> </text><text font-size="34" x="1352" y="3152">Poussières de Dithane</text><text font-size="44" x="1525" y="3216">+</text><text font-size="26" x="1447" y="3242">H7_S et CS_7_</text><text font-size="50" x="562" y="3231"> </text><text font-size="50" x="1774" y="3231"> </text><text font-size="12" x="139" y="2189"> </text><text font-size="8" x="561" y="2185"> </text><text font-size="8" x="1299" y="2185"> </text><text font-size="14" x="1769" y="2191"> </text><text font-size="12" x="2006" y="2191"> </text><text font-size="10" x="2301" y="2187"> </text><text font-size="12" x="381" y="2290"> </text><text font-size="50" x="145" y="3304"> </text><text font-size="50" x="1775" y="3305"> </text><line stroke="black" x1="2013" x2="2302" y1="3186" y2="3186" /><line stroke="black" x1="2013" x2="2302" y1="3255" y2="3255" /><line stroke="black" x1="2013" x2="2013" y1="3186" y2="3255" /><line stroke="black" x1="2302" x2="2302" y1="3186" y2="3255" /><text font-size="38" x="2100" y="3232">55 000</text><line stroke="black" x1="1775" x2="2007" y1="3186" y2="3186" /><line stroke="black" x1="1775" x2="2007" y1="3255" y2="3255" /><line stroke="black" x1="1775" x2="1775" y1="3186" y2="3255" /><line stroke="black" x1="2007" x2="2007" y1="3186" y2="3255" /><line stroke="black" x1="565" x2="1299" y1="3186" y2="3186" /><line stroke="black" x1="565" x2="1299" y1="3255" y2="3255" /><line stroke="black" x1="565" x2="565" y1="3186" y2="3255" /><line stroke="black" x1="1299" x2="1299" y1="3186" y2="3255" /><text font-size="32" x="717" y="3225">L80 -250 rejet ventilateur</text><line stroke="black" x1="2013" x2="2302" y1="3111" y2="3111" /><line stroke="black" x1="2013" x2="2302" y1="3181" y2="3181" /><line stroke="black" x1="2013" x2="2013" y1="3111" y2="3181" /><line stroke="black" x1="2302" x2="2302" y1="3111" y2="3181" /><text font-size="38" x="2100" y="3157">55 000</text><line stroke="black" x1="1775" x2="2007" y1="3111" y2="3111" /><line stroke="black" x1="1775" x2="2007" y1="3181" y2="3181" /><line stroke="black" x1="1775" x2="1775" y1="3111" y2="3181" /><line stroke="black" x1="2007" x2="2007" y1="3111" y2="3181" /><line stroke="black" x1="565" x2="1299" y1="3111" y2="3111" /><line stroke="black" x1="565" x2="1299" y1="3181" y2="3181" /><line stroke="black" x1="565" x2="565" y1="3111" y2="3181" /><line stroke="black" x1="1299" x2="1299" y1="3111" y2="3181" /><text font-size="34" x="713" y="3152">L80 —150 rejet ventilateur</text><line stroke="black" x1="388" x2="561" y1="3111" y2="3111" /><line stroke="black" x1="388" x2="561" y1="3255" y2="3255" /><line stroke="black" x1="388" x2="388" y1="3111" y2="3255" /><line stroke="black" x1="561" x2="561" y1="3111" y2="3255" /><text font-size="36" x="419" y="3156">Dith 8</text><text font-size="38" x="423" y="3256">Dith 9</text><line stroke="black" x1="145" x2="382" y1="3111" y2="3111" /><line stroke="black" x1="145" x2="382" y1="3255" y2="3255" /><line stroke="black" x1="145" x2="145" y1="3111" y2="3255" /><line stroke="black" x1="382" x2="382" y1="3111" y2="3255" /><text font-size="50" x="224" y="3170">L 80</text><line stroke="black" x1="2013" x2="2302" y1="2964" y2="2964" /><line stroke="black" x1="2013" x2="2302" y1="3106" y2="3106" /><line stroke="black" x1="2013" x2="2013" y1="2964" y2="3106" /><line stroke="black" x1="2302" x2="2302" y1="2964" y2="3106" /><text font-size="34" x="2115" y="3004">| 400</text><line stroke="black" x1="1775" x2="2007" y1="2964" y2="2964" /><line stroke="black" x1="1775" x2="2007" y1="3106" y2="3106" /><line stroke="black" x1="1775" x2="1775" y1="2964" y2="3106" /><line stroke="black" x1="2007" x2="2007" y1="2964" y2="3106" /><text font-size="38" x="1870" y="3008">25</text><line stroke="black" x1="1303" x2="1771" y1="2964" y2="2964" /><line stroke="black" x1="1303" x2="1771" y1="3106" y2="3106" /><line stroke="black" x1="1303" x2="1303" y1="2964" y2="3106" /><line stroke="black" x1="1771" x2="1771" y1="2964" y2="3106" /><text font-size="34" x="1353" y="3004">Poussières de Dithane</text><text font-size="44" x="1525" y="3067">+</text><text font-size="40" x="1446" y="3108">H2$ et CSz</text><line stroke="black" x1="565" x2="1299" y1="2964" y2="2964" /><line stroke="black" x1="565" x2="1299" y1="3106" y2="3106" /><line stroke="black" x1="565" x2="565" y1="2964" y2="3106" /><line stroke="black" x1="1299" x2="1299" y1="2964" y2="3106" /><text font-size="32" x="785" y="3002">Rejets ventilateur</text><line stroke="black" x1="388" x2="561" y1="2964" y2="2964" /><line stroke="black" x1="388" x2="561" y1="3106" y2="3106" /><line stroke="black" x1="388" x2="388" y1="2964" y2="3106" /><line stroke="black" x1="561" x2="561" y1="2964" y2="3106" /><text font-size="36" x="418" y="3008">Dith 7</text><line stroke="black" x1="2013" x2="2302" y1="2815" y2="2815" /><line stroke="black" x1="2013" x2="2302" y1="2958" y2="2958" /><line stroke="black" x1="2013" x2="2013" y1="2815" y2="2958" /><line stroke="black" x1="2302" x2="2302" y1="2815" y2="2958" /><text font-size="36" x="2104" y="2859">11 000</text><line stroke="black" x1="1775" x2="2007" y1="2815" y2="2815" /><line stroke="black" x1="1775" x2="2007" y1="2958" y2="2958" /><line stroke="black" x1="1775" x2="1775" y1="2815" y2="2958" /><line stroke="black" x1="2007" x2="2007" y1="2815" y2="2958" /><text font-size="36" x="1871" y="2859">35</text><line stroke="black" x1="1303" x2="1771" y1="2815" y2="2815" /><line stroke="black" x1="1303" x2="1771" y1="2958" y2="2958" /><line stroke="black" x1="1303" x2="1303" y1="2815" y2="2958" /><line stroke="black" x1="1771" x2="1771" y1="2815" y2="2958" /><text font-size="34" x="1353" y="2857">Poussières de Dithane</text><text font-size="44" x="1525" y="2919">+</text><text font-size="40" x="1446" y="2961">H2$ et CSz</text><line stroke="black" x1="565" x2="1299" y1="2815" y2="2815" /><line stroke="black" x1="565" x2="1299" y1="2958" y2="2958" /><line stroke="black" x1="565" x2="565" y1="2815" y2="2958" /><line stroke="black" x1="1299" x2="1299" y1="2815" y2="2958" /><text font-size="34" x="576" y="2857">Rejets communs atomiseur et lit fixe après</text><text font-size="32" x="744" y="2903">dernier lavage fluidisé</text><line stroke="black" x1="388" x2="561" y1="2815" y2="2815" /><line stroke="black" x1="388" x2="561" y1="2958" y2="2958" /><line stroke="black" x1="388" x2="388" y1="2815" y2="2958" /><line stroke="black" x1="561" x2="561" y1="2815" y2="2958" /><text font-size="36" x="419" y="2859">Dith 6</text><line stroke="black" x1="145" x2="382" y1="2815" y2="2815" /><line stroke="black" x1="145" x2="382" y1="3106" y2="3106" /><line stroke="black" x1="145" x2="145" y1="2815" y2="3106" /><line stroke="black" x1="382" x2="382" y1="2815" y2="3106" /><text font-size="50" x="224" y="2873">L 38</text><text font-size="40" x="176" y="3060">Pilote DG</text><line stroke="black" x1="2013" x2="2302" y1="2656" y2="2656" /><line stroke="black" x1="2013" x2="2302" y1="2809" y2="2809" /><line stroke="black" x1="2013" x2="2013" y1="2656" y2="2809" /><line stroke="black" x1="2302" x2="2302" y1="2656" y2="2809" /><text font-size="38" x="2099" y="2702">21 000</text><line stroke="black" x1="1775" x2="2007" y1="2656" y2="2656" /><line stroke="black" x1="1775" x2="2007" y1="2809" y2="2809" /><line stroke="black" x1="1775" x2="1775" y1="2656" y2="2809" /><line stroke="black" x1="2007" x2="2007" y1="2656" y2="2809" /><text font-size="38" x="1870" y="2702">27</text><line stroke="black" x1="1303" x2="1771" y1="2656" y2="2656" /><line stroke="black" x1="1303" x2="1771" y1="2809" y2="2809" /><line stroke="black" x1="1303" x2="1303" y1="2656" y2="2809" /><line stroke="black" x1="1771" x2="1771" y1="2656" y2="2809" /><text font-size="34" x="1353" y="2698">Poussières de Dithane</text><text font-size="44" x="1525" y="2761">+</text><text font-size="40" x="1446" y="2802">H2$ et CSz</text><line stroke="black" x1="565" x2="1299" y1="2656" y2="2656" /><line stroke="black" x1="565" x2="1299" y1="2809" y2="2809" /><line stroke="black" x1="565" x2="565" y1="2656" y2="2809" /><line stroke="black" x1="1299" x2="1299" y1="2656" y2="2809" /><text font-size="34" x="695" y="2698">Rejets atomiseur et scrubber</text><line stroke="black" x1="388" x2="561" y1="2656" y2="2656" /><line stroke="black" x1="388" x2="561" y1="2809" y2="2809" /><line stroke="black" x1="388" x2="388" y1="2656" y2="2809" /><line stroke="black" x1="561" x2="561" y1="2656" y2="2809" /><text font-size="36" x="418" y="2702">Dith S</text><line stroke="black" x1="2013" x2="2302" y1="2600" y2="2600" /><line stroke="black" x1="2013" x2="2302" y1="2652" y2="2652" /><line stroke="black" x1="2013" x2="2013" y1="2600" y2="2652" /><line stroke="black" x1="2302" x2="2302" y1="2600" y2="2652" /><text font-size="44" x="2111" y="2653">7000</text><line stroke="black" x1="1775" x2="2007" y1="2600" y2="2600" /><line stroke="black" x1="1775" x2="2007" y1="2652" y2="2652" /><line stroke="black" x1="1775" x2="1775" y1="2600" y2="2652" /><line stroke="black" x1="2007" x2="2007" y1="2600" y2="2652" /><text font-size="38" x="1871" y="2647">36</text><line stroke="black" x1="1303" x2="1771" y1="2600" y2="2600" /><line stroke="black" x1="1303" x2="1771" y1="2652" y2="2652" /><line stroke="black" x1="1303" x2="1303" y1="2600" y2="2652" /><line stroke="black" x1="1771" x2="1771" y1="2600" y2="2652" /><text font-size="40" x="1446" y="2649">HzS et CSz</text><line stroke="black" x1="565" x2="1299" y1="2600" y2="2600" /><line stroke="black" x1="565" x2="1299" y1="2652" y2="2652" /><line stroke="black" x1="565" x2="565" y1="2600" y2="2652" /><line stroke="black" x1="1299" x2="1299" y1="2600" y2="2652" /><text font-size="38" x="724" y="2646">Rejets cheminée Convex</text><line stroke="black" x1="388" x2="561" y1="2600" y2="2600" /><line stroke="black" x1="388" x2="561" y1="2652" y2="2652" /><line stroke="black" x1="388" x2="388" y1="2600" y2="2652" /><line stroke="black" x1="561" x2="561" y1="2600" y2="2652" /><text font-size="36" x="419" y="2646">Dith 4</text><line stroke="black" x1="145" x2="382" y1="2600" y2="2600" /><line stroke="black" x1="145" x2="382" y1="2809" y2="2809" /><line stroke="black" x1="145" x2="145" y1="2600" y2="2809" /><line stroke="black" x1="382" x2="382" y1="2600" y2="2809" /><text font-size="50" x="224" y="2660">L25</text><line stroke="black" x1="2013" x2="2302" y1="2452" y2="2452" /><line stroke="black" x1="2013" x2="2302" y1="2596" y2="2596" /><line stroke="black" x1="2013" x2="2013" y1="2452" y2="2596" /><line stroke="black" x1="2302" x2="2302" y1="2452" y2="2596" /><text font-size="38" x="2099" y="2498">25 000</text><line stroke="black" x1="1775" x2="2007" y1="2452" y2="2452" /><line stroke="black" x1="1775" x2="2007" y1="2596" y2="2596" /><line stroke="black" x1="1775" x2="1775" y1="2452" y2="2596" /><line stroke="black" x1="2007" x2="2007" y1="2452" y2="2596" /><text font-size="38" x="1870" y="2498">27</text><line stroke="black" x1="1303" x2="1771" y1="2452" y2="2452" /><line stroke="black" x1="1303" x2="1771" y1="2596" y2="2596" /><line stroke="black" x1="1303" x2="1303" y1="2452" y2="2596" /><line stroke="black" x1="1771" x2="1771" y1="2452" y2="2596" /><text font-size="34" x="1353" y="2494">Poussières de Dithane</text><text font-size="44" x="1525" y="2557">+</text><text font-size="40" x="1446" y="2598">HzS et CSz</text><line stroke="black" x1="565" x2="1299" y1="2452" y2="2452" /><line stroke="black" x1="565" x2="1299" y1="2596" y2="2596" /><line stroke="black" x1="565" x2="565" y1="2452" y2="2596" /><line stroke="black" x1="1299" x2="1299" y1="2452" y2="2596" /><text font-size="34" x="695" y="2494">Rejets atomiseur et scrubber</text><line stroke="black" x1="388" x2="561" y1="2452" y2="2452" /><line stroke="black" x1="388" x2="561" y1="2596" y2="2596" /><line stroke="black" x1="388" x2="388" y1="2452" y2="2596" /><line stroke="black" x1="561" x2="561" y1="2452" y2="2596" /><text font-size="36" x="419" y="2498">Dith 3</text><line stroke="black" x1="2013" x2="2302" y1="2378" y2="2378" /><line stroke="black" x1="2013" x2="2302" y1="2448" y2="2448" /><line stroke="black" x1="2013" x2="2013" y1="2378" y2="2448" /><line stroke="black" x1="2302" x2="2302" y1="2378" y2="2448" /><text font-size="44" x="2111" y="2429">7700</text><line stroke="black" x1="1775" x2="2007" y1="2378" y2="2378" /><line stroke="black" x1="1775" x2="2007" y1="2448" y2="2448" /><line stroke="black" x1="1775" x2="1775" y1="2378" y2="2448" /><line stroke="black" x1="2007" x2="2007" y1="2378" y2="2448" /><text font-size="38" x="1871" y="2423">36</text><line stroke="black" x1="1303" x2="1771" y1="2378" y2="2378" /><line stroke="black" x1="1303" x2="1771" y1="2448" y2="2448" /><line stroke="black" x1="1303" x2="1303" y1="2378" y2="2448" /><line stroke="black" x1="1771" x2="1771" y1="2378" y2="2448" /><text font-size="42" x="1446" y="2427">HS et CS,</text><line stroke="black" x1="565" x2="1299" y1="2378" y2="2378" /><line stroke="black" x1="565" x2="1299" y1="2448" y2="2448" /><line stroke="black" x1="565" x2="565" y1="2378" y2="2448" /><line stroke="black" x1="1299" x2="1299" y1="2378" y2="2448" /><text font-size="34" x="674" y="2419">Rejets après traitement bioway</text><line stroke="black" x1="388" x2="561" y1="2378" y2="2378" /><line stroke="black" x1="388" x2="561" y1="2448" y2="2448" /><line stroke="black" x1="388" x2="388" y1="2378" y2="2448" /><line stroke="black" x1="561" x2="561" y1="2378" y2="2448" /><text font-size="42" x="419" y="2429">Dith2</text><line stroke="black" x1="145" x2="382" y1="2378" y2="2378" /><line stroke="black" x1="145" x2="382" y1="2596" y2="2596" /><line stroke="black" x1="145" x2="145" y1="2378" y2="2596" /><line stroke="black" x1="382" x2="382" y1="2378" y2="2596" /><line stroke="black" x1="2013" x2="2302" y1="2278" y2="2278" /><line stroke="black" x1="2013" x2="2302" y1="2373" y2="2373" /><line stroke="black" x1="2013" x2="2013" y1="2278" y2="2373" /><line stroke="black" x1="2302" x2="2302" y1="2278" y2="2373" /><text font-size="36" x="2104" y="2322">17 500</text><line stroke="black" x1="1775" x2="2007" y1="2278" y2="2278" /><line stroke="black" x1="1775" x2="2007" y1="2373" y2="2373" /><line stroke="black" x1="1775" x2="1775" y1="2278" y2="2373" /><line stroke="black" x1="2007" x2="2007" y1="2278" y2="2373" /><text font-size="34" x="1854" y="2320">26.5</text><line stroke="black" x1="1303" x2="1771" y1="2278" y2="2278" /><line stroke="black" x1="1303" x2="1771" y1="2373" y2="2373" /><line stroke="black" x1="1303" x2="1303" y1="2278" y2="2373" /><line stroke="black" x1="1771" x2="1771" y1="2278" y2="2373" /><text font-size="42" x="1505" y="2328">sO,</text><line stroke="black" x1="565" x2="1299" y1="2278" y2="2278" /><line stroke="black" x1="565" x2="1299" y1="2373" y2="2373" /><line stroke="black" x1="565" x2="565" y1="2278" y2="2373" /><line stroke="black" x1="1299" x2="1299" y1="2278" y2="2373" /><text font-size="32" x="573" y="2318">Rejets sortie laveur des effluents des cuves</text><text font-size="30" x="822" y="2365">de sulfitation</text><line stroke="black" x1="388" x2="561" y1="2278" y2="2278" /><line stroke="black" x1="388" x2="561" y1="2373" y2="2373" /><line stroke="black" x1="388" x2="388" y1="2278" y2="2373" /><line stroke="black" x1="561" x2="561" y1="2278" y2="2373" /><text font-size="34" x="419" y="2322">Dith 1</text><line stroke="black" x1="145" x2="382" y1="2278" y2="2278" /><line stroke="black" x1="145" x2="382" y1="2373" y2="2373" /><line stroke="black" x1="145" x2="145" y1="2278" y2="2373" /><line stroke="black" x1="382" x2="382" y1="2278" y2="2373" /><text font-size="40" x="224" y="2328">L 10</text><line stroke="black" x1="2013" x2="2302" y1="2179" y2="2179" /><line stroke="black" x1="2013" x2="2302" y1="2274" y2="2274" /><line stroke="black" x1="2013" x2="2013" y1="2179" y2="2274" /><line stroke="black" x1="2302" x2="2302" y1="2179" y2="2274" /><text font-size="50" x="2093" y="2238">DEBIT</text><text font-size="38" x="2118" y="2265">m*/h</text><line stroke="black" x1="1776" x2="2007" y1="2179" y2="2179" /><line stroke="black" x1="1776" x2="2007" y1="2274" y2="2274" /><line stroke="black" x1="1776" x2="1776" y1="2179" y2="2274" /><line stroke="black" x1="2007" x2="2007" y1="2179" y2="2274" /><text font-size="50" x="1787" y="2238">HAUTEUR</text><text font-size="38" x="1832" y="2274">mètres</text><line stroke="black" x1="1303" x2="1771" y1="2179" y2="2179" /><line stroke="black" x1="1303" x2="1771" y1="2274" y2="2274" /><line stroke="black" x1="1303" x2="1303" y1="2179" y2="2274" /><line stroke="black" x1="1771" x2="1771" y1="2179" y2="2274" /><text font-size="50" x="1420" y="2237">COMPOSES</text><line stroke="black" x1="565" x2="1298" y1="2179" y2="2179" /><line stroke="black" x1="565" x2="1298" y1="2274" y2="2274" /><line stroke="black" x1="565" x2="565" y1="2179" y2="2274" /><line stroke="black" x1="1298" x2="1298" y1="2179" y2="2274" /><text font-size="50" x="672" y="2237">CHEMINEES D’EMISSION</text><line stroke="black" x1="388" x2="560" y1="2179" y2="2179" /><line stroke="black" x1="388" x2="560" y1="2274" y2="2274" /><line stroke="black" x1="388" x2="388" y1="2179" y2="2274" /><line stroke="black" x1="560" x2="560" y1="2179" y2="2274" /><text font-size="40" x="442" y="2228">Rp.</text><text font-size="36" x="428" y="2273">usine</text><line stroke="black" x1="145" x2="382" y1="2179" y2="2179" /><line stroke="black" x1="145" x2="382" y1="2274" y2="2274" /><line stroke="black" x1="145" x2="145" y1="2179" y2="2274" /><line stroke="black" x1="382" x2="382" y1="2179" y2="2274" /><text font-size="50" x="150" y="2238">BATIMENT</text><line stroke="black" x1="1982" x2="2302" y1="1511" y2="1511" /><line stroke="black" x1="1982" x2="2302" y1="1749" y2="1749" /><line stroke="black" x1="1982" x2="1982" y1="1511" y2="1749" /><line stroke="black" x1="2302" x2="2302" y1="1511" y2="1749" /><text font-size="32" x="2011" y="1550">L 10, L 11, L 12,</text><text font-size="32" x="2011" y="1595">L 25, L 31, L 38,</text><text font-size="44" x="2107" y="1650">L 80</text><line stroke="black" x1="1598" x2="1977" y1="1511" y2="1511" /><line stroke="black" x1="1598" x2="1977" y1="1749" y2="1749" /><line stroke="black" x1="1598" x2="1598" y1="1511" y2="1749" /><line stroke="black" x1="1977" x2="1977" y1="1511" y2="1749" /><text font-size="32" x="1617" y="1549">150 t/j de Manèbe et</text><text font-size="34" x="1613" y="1595">Mancozèbe (2200 t</text><text font-size="30" x="1613" y="1636">présentes)</text><line stroke="black" x1="1363" x2="1593" y1="1511" y2="1511" /><line stroke="black" x1="1363" x2="1593" y1="1749" y2="1749" /><line stroke="black" x1="1363" x2="1363" y1="1511" y2="1749" /><line stroke="black" x1="1593" x2="1593" y1="1511" y2="1749" /><text font-size="44" x="1454" y="1562">AS</text><text font-size="42" x="1439" y="1648">4 km</text><line stroke="black" x1="418" x2="1357" y1="1511" y2="1511" /><line stroke="black" x1="418" x2="1357" y1="1749" y2="1749" /><line stroke="black" x1="418" x2="418" y1="1511" y2="1749" /><line stroke="black" x1="1357" x2="1357" y1="1511" y2="1749" /><text font-size="28" x="432" y="1545">Fabrication industrielle de telles substances</text><line stroke="black" x1="1982" x2="2302" y1="1243" y2="1243" /><line stroke="black" x1="1982" x2="2302" y1="1504" y2="1504" /><line stroke="black" x1="1982" x2="1982" y1="1243" y2="1504" /><line stroke="black" x1="2302" x2="2302" y1="1243" y2="1504" /><text font-size="46" x="2107" y="1340">L26</text><line stroke="black" x1="1598" x2="1977" y1="1243" y2="1243" /><line stroke="black" x1="1598" x2="1977" y1="1504" y2="1504" /><line stroke="black" x1="1598" x2="1598" y1="1243" y2="1504" /><line stroke="black" x1="1977" x2="1977" y1="1243" y2="1504" /><text font-size="28" x="1613" y="1320">Quantité totale : 2200 t</text><text font-size="34" x="1613" y="1371">de Manèbe et</text><text font-size="38" x="1613" y="1419">Mancozèbe</text><line stroke="black" x1="1363" x2="1593" y1="1243" y2="1243" /><line stroke="black" x1="1363" x2="1593" y1="1504" y2="1504" /><line stroke="black" x1="1363" x2="1363" y1="1243" y2="1504" /><line stroke="black" x1="1593" x2="1593" y1="1243" y2="1504" /><text font-size="46" x="1453" y="1295">AS</text><text font-size="40" x="1440" y="1378">3 km</text><line stroke="black" x1="418" x2="1357" y1="1243" y2="1243" /><line stroke="black" x1="418" x2="1357" y1="1504" y2="1504" /><line stroke="black" x1="418" x2="418" y1="1243" y2="1504" /><line stroke="black" x1="1357" x2="1357" y1="1243" y2="1504" /><text font-size="32" x="432" y="1281">Stockage et emploi de Substances ou préparations</text><text font-size="30" x="431" y="1322">dangereuses pour l'environnement - À -, très toxiques pour</text><text font-size="30" x="432" y="1367">les organismes aquatiques, telles que définies à la rubrique</text><text font-size="30" x="436" y="1411">1000, à l'exclusion de celles visées nominativement ou par</text><text font-size="28" x="432" y="1452">famille par d'autres rubriques</text><line stroke="black" x1="1982" x2="2302" y1="362" y2="362" /><line stroke="black" x1="1982" x2="2302" y1="1021" y2="1021" /><line stroke="black" x1="1982" x2="1982" y1="362" y2="1021" /><line stroke="black" x1="2302" x2="2302" y1="362" y2="1021" /><line stroke="black" x1="1598" x2="1977" y1="362" y2="362" /><line stroke="black" x1="1598" x2="1977" y1="1021" y2="1021" /><line stroke="black" x1="1598" x2="1598" y1="362" y2="1021" /><line stroke="black" x1="1977" x2="1977" y1="362" y2="1021" /><text font-size="32" x="1612" y="401">Annexe 1.5:</text><text font-size="30" x="1613" y="487">Puissance totale de 7</text><text font-size="50" x="1613" y="551">MW</text><line stroke="black" x1="1363" x2="1593" y1="362" y2="362" /><line stroke="black" x1="1363" x2="1593" y1="1021" y2="1021" /><line stroke="black" x1="1363" x2="1363" y1="362" y2="1021" /><line stroke="black" x1="1593" x2="1593" y1="362" y2="1021" /><line stroke="black" x1="418" x2="1357" y1="362" y2="362" /><line stroke="black" x1="418" x2="1357" y1="1021" y2="1021" /><line stroke="black" x1="418" x2="418" y1="362" y2="1021" /><line stroke="black" x1="1357" x2="1357" y1="362" y2="1021" /><text font-size="30" x="432" y="400">Combustion à l’exclusion des installations visées par les</text><text font-size="32" x="431" y="445">rubriques 167C et 322 B4.</text><text font-size="32" x="432" y="489">La puissance thermique maximale est définie comme la</text><text font-size="32" x="431" y="534">quantité maximale de combustible, exprimée en PCI,</text><text font-size="32" x="432" y="577">susceptible d’être consommée par seconde.</text><text font-size="32" x="431" y="666">A) Lorsque l’installation consomme exclusivement, seuls</text><text font-size="30" x="431" y="707">ou en mélange du gaz naturel, des gaz de pétrole liquéfiés,</text><text font-size="30" x="431" y="751">du fioul domestique, du charbon, des fiouls lourds ou la</text><text font-size="28" x="431" y="794">biomasse, à l’exclusion des installations visées par d’autres</text><text font-size="30" x="431" y="839">rubriques de la nomenclature pour lesquelles la combustion</text><text font-size="28" x="431" y="881">participe à la fusion, la cuisson ou au traitement, en</text><text font-size="30" x="432" y="928">mélange avec les gaz de combustion, des matières entrantes,</text><text font-size="30" x="432" y="971">si la puissance thermique maximale de l’installation est :</text><text font-size="34" x="431" y="1019">2. — supérieure à 2 MW, mais inférieure à 20 MW</text></svg>